<mxfile host="app.diagrams.net" modified="2023-01-14T21:23:07.209Z" agent="5.0 (Windows NT 10.0; Win64; x64) AppleWebKit/537.36 (KHTML, like Gecko) Chrome/108.0.0.0 Safari/537.36" version="20.8.5" etag="2ezDW5TilxRJ4CmFG7BG" type="github">
  <diagram id="cj5-qww4Ww2rfZcTTnMO" name="Page-1">
    <mxGraphModel dx="1221" dy="755" grid="1" gridSize="10" guides="1" tooltips="1" connect="1" arrows="1" fold="1" page="1" pageScale="1" pageWidth="827" pageHeight="1169" math="0" shadow="0">
      <root>
        <mxCell id="0" />
        <mxCell id="1" parent="0" />
        <mxCell id="twKAsYr6d4WCP9Y2F7K1-1" value="Customer" style="shape=umlActor;verticalLabelPosition=bottom;verticalAlign=top;html=1;" vertex="1" parent="1">
          <mxGeometry x="30" y="60" width="30" height="60" as="geometry" />
        </mxCell>
        <mxCell id="twKAsYr6d4WCP9Y2F7K1-4" value="Log in" style="ellipse;whiteSpace=wrap;html=1;" vertex="1" parent="1">
          <mxGeometry x="450" y="200" width="140" height="70" as="geometry" />
        </mxCell>
        <mxCell id="twKAsYr6d4WCP9Y2F7K1-5" value="View menu" style="ellipse;whiteSpace=wrap;html=1;" vertex="1" parent="1">
          <mxGeometry x="160" y="10" width="140" height="70" as="geometry" />
        </mxCell>
        <mxCell id="twKAsYr6d4WCP9Y2F7K1-6" value="View total bill" style="ellipse;whiteSpace=wrap;html=1;" vertex="1" parent="1">
          <mxGeometry x="160" y="90" width="140" height="70" as="geometry" />
        </mxCell>
        <mxCell id="twKAsYr6d4WCP9Y2F7K1-7" value="Order pizza" style="ellipse;whiteSpace=wrap;html=1;" vertex="1" parent="1">
          <mxGeometry x="160" y="170" width="140" height="70" as="geometry" />
        </mxCell>
        <mxCell id="twKAsYr6d4WCP9Y2F7K1-8" value="View order tracking" style="ellipse;whiteSpace=wrap;html=1;" vertex="1" parent="1">
          <mxGeometry x="160" y="260" width="140" height="70" as="geometry" />
        </mxCell>
        <mxCell id="twKAsYr6d4WCP9Y2F7K1-9" value="&amp;lt;&amp;lt;include&amp;gt;&amp;gt;" style="edgeStyle=none;html=1;endArrow=open;verticalAlign=bottom;dashed=1;labelBackgroundColor=none;rounded=0;entryX=0.5;entryY=0;entryDx=0;entryDy=0;exitX=1;exitY=0.5;exitDx=0;exitDy=0;" edge="1" parent="1" source="twKAsYr6d4WCP9Y2F7K1-5" target="twKAsYr6d4WCP9Y2F7K1-4">
          <mxGeometry width="160" relative="1" as="geometry">
            <mxPoint x="300" y="40" as="sourcePoint" />
            <mxPoint x="460" y="40" as="targetPoint" />
          </mxGeometry>
        </mxCell>
        <mxCell id="twKAsYr6d4WCP9Y2F7K1-28" value="&amp;lt;&amp;lt;include&amp;gt;&amp;gt;" style="edgeStyle=none;html=1;endArrow=open;verticalAlign=bottom;dashed=1;labelBackgroundColor=none;rounded=0;exitX=0.974;exitY=0.767;exitDx=0;exitDy=0;exitPerimeter=0;entryX=0.05;entryY=0.262;entryDx=0;entryDy=0;entryPerimeter=0;" edge="1" parent="1" source="twKAsYr6d4WCP9Y2F7K1-7" target="twKAsYr6d4WCP9Y2F7K1-4">
          <mxGeometry width="160" relative="1" as="geometry">
            <mxPoint x="300" y="200" as="sourcePoint" />
            <mxPoint x="460" y="200" as="targetPoint" />
          </mxGeometry>
        </mxCell>
        <mxCell id="twKAsYr6d4WCP9Y2F7K1-31" value="&amp;lt;&amp;lt;include&amp;gt;&amp;gt;" style="edgeStyle=none;html=1;endArrow=open;verticalAlign=bottom;dashed=1;labelBackgroundColor=none;rounded=0;entryX=0.212;entryY=0.052;entryDx=0;entryDy=0;entryPerimeter=0;exitX=0.929;exitY=0.857;exitDx=0;exitDy=0;exitPerimeter=0;" edge="1" parent="1" source="twKAsYr6d4WCP9Y2F7K1-6" target="twKAsYr6d4WCP9Y2F7K1-4">
          <mxGeometry width="160" relative="1" as="geometry">
            <mxPoint x="300" y="130" as="sourcePoint" />
            <mxPoint x="460" y="130" as="targetPoint" />
          </mxGeometry>
        </mxCell>
        <mxCell id="twKAsYr6d4WCP9Y2F7K1-32" value="&amp;lt;&amp;lt;include&amp;gt;&amp;gt;" style="edgeStyle=none;html=1;endArrow=open;verticalAlign=bottom;dashed=1;labelBackgroundColor=none;rounded=0;exitX=0.969;exitY=0.71;exitDx=0;exitDy=0;exitPerimeter=0;entryX=0.017;entryY=0.643;entryDx=0;entryDy=0;entryPerimeter=0;" edge="1" parent="1" source="twKAsYr6d4WCP9Y2F7K1-8" target="twKAsYr6d4WCP9Y2F7K1-4">
          <mxGeometry width="160" relative="1" as="geometry">
            <mxPoint x="280" y="330" as="sourcePoint" />
            <mxPoint x="440" y="330" as="targetPoint" />
          </mxGeometry>
        </mxCell>
        <mxCell id="twKAsYr6d4WCP9Y2F7K1-33" value="" style="edgeStyle=none;html=1;endArrow=none;verticalAlign=bottom;rounded=0;entryX=0.031;entryY=0.319;entryDx=0;entryDy=0;entryPerimeter=0;" edge="1" parent="1" target="twKAsYr6d4WCP9Y2F7K1-5">
          <mxGeometry width="160" relative="1" as="geometry">
            <mxPoint x="60" y="90" as="sourcePoint" />
            <mxPoint x="220" y="90" as="targetPoint" />
          </mxGeometry>
        </mxCell>
        <mxCell id="twKAsYr6d4WCP9Y2F7K1-34" value="" style="edgeStyle=none;html=1;endArrow=none;verticalAlign=bottom;rounded=0;entryX=0.045;entryY=0.3;entryDx=0;entryDy=0;entryPerimeter=0;" edge="1" parent="1" target="twKAsYr6d4WCP9Y2F7K1-6">
          <mxGeometry width="160" relative="1" as="geometry">
            <mxPoint x="60" y="90" as="sourcePoint" />
            <mxPoint x="220" y="90" as="targetPoint" />
          </mxGeometry>
        </mxCell>
        <mxCell id="twKAsYr6d4WCP9Y2F7K1-35" value="" style="edgeStyle=none;html=1;endArrow=none;verticalAlign=bottom;rounded=0;entryX=0.036;entryY=0.3;entryDx=0;entryDy=0;entryPerimeter=0;" edge="1" parent="1" target="twKAsYr6d4WCP9Y2F7K1-7">
          <mxGeometry width="160" relative="1" as="geometry">
            <mxPoint x="60" y="90" as="sourcePoint" />
            <mxPoint x="220" y="90" as="targetPoint" />
          </mxGeometry>
        </mxCell>
        <mxCell id="twKAsYr6d4WCP9Y2F7K1-36" value="" style="edgeStyle=none;html=1;endArrow=none;verticalAlign=bottom;rounded=0;entryX=0.06;entryY=0.31;entryDx=0;entryDy=0;entryPerimeter=0;" edge="1" parent="1" target="twKAsYr6d4WCP9Y2F7K1-8">
          <mxGeometry width="160" relative="1" as="geometry">
            <mxPoint x="60" y="90" as="sourcePoint" />
            <mxPoint x="220" y="90" as="targetPoint" />
          </mxGeometry>
        </mxCell>
        <mxCell id="twKAsYr6d4WCP9Y2F7K1-37" value="Admin" style="shape=umlActor;verticalLabelPosition=bottom;verticalAlign=top;html=1;" vertex="1" parent="1">
          <mxGeometry x="30" y="490" width="30" height="60" as="geometry" />
        </mxCell>
        <mxCell id="twKAsYr6d4WCP9Y2F7K1-38" value="Add/delete positions in menu" style="ellipse;whiteSpace=wrap;html=1;" vertex="1" parent="1">
          <mxGeometry x="160" y="420" width="140" height="70" as="geometry" />
        </mxCell>
        <mxCell id="twKAsYr6d4WCP9Y2F7K1-39" value="Manage order status" style="ellipse;whiteSpace=wrap;html=1;" vertex="1" parent="1">
          <mxGeometry x="160" y="504.5" width="140" height="70" as="geometry" />
        </mxCell>
        <mxCell id="twKAsYr6d4WCP9Y2F7K1-40" value="Manage payment" style="ellipse;whiteSpace=wrap;html=1;" vertex="1" parent="1">
          <mxGeometry x="160" y="580" width="140" height="70" as="geometry" />
        </mxCell>
        <mxCell id="twKAsYr6d4WCP9Y2F7K1-42" value="&amp;lt;&amp;lt;include&amp;gt;&amp;gt;" style="edgeStyle=none;html=1;endArrow=open;verticalAlign=bottom;dashed=1;labelBackgroundColor=none;rounded=0;exitX=1;exitY=0.286;exitDx=0;exitDy=0;exitPerimeter=0;entryX=0.269;entryY=0.948;entryDx=0;entryDy=0;entryPerimeter=0;" edge="1" parent="1" source="twKAsYr6d4WCP9Y2F7K1-38" target="twKAsYr6d4WCP9Y2F7K1-4">
          <mxGeometry width="160" relative="1" as="geometry">
            <mxPoint x="299.9999999999999" y="455.35" as="sourcePoint" />
            <mxPoint x="460.64" y="450" as="targetPoint" />
          </mxGeometry>
        </mxCell>
        <mxCell id="twKAsYr6d4WCP9Y2F7K1-43" value="&amp;lt;&amp;lt;include&amp;gt;&amp;gt;" style="edgeStyle=none;html=1;endArrow=open;verticalAlign=bottom;dashed=1;labelBackgroundColor=none;rounded=0;exitX=0.988;exitY=0.264;exitDx=0;exitDy=0;exitPerimeter=0;entryX=0.436;entryY=1.052;entryDx=0;entryDy=0;entryPerimeter=0;" edge="1" parent="1" source="twKAsYr6d4WCP9Y2F7K1-39" target="twKAsYr6d4WCP9Y2F7K1-4">
          <mxGeometry width="160" relative="1" as="geometry">
            <mxPoint x="299.9999999999999" y="537.6700000000001" as="sourcePoint" />
            <mxPoint x="460.64" y="532.32" as="targetPoint" />
          </mxGeometry>
        </mxCell>
        <mxCell id="twKAsYr6d4WCP9Y2F7K1-44" value="&amp;lt;&amp;lt;include&amp;gt;&amp;gt;" style="edgeStyle=none;html=1;endArrow=open;verticalAlign=bottom;dashed=1;labelBackgroundColor=none;rounded=0;exitX=0.998;exitY=0.29;exitDx=0;exitDy=0;exitPerimeter=0;entryX=0.607;entryY=1.024;entryDx=0;entryDy=0;entryPerimeter=0;" edge="1" parent="1" source="twKAsYr6d4WCP9Y2F7K1-40" target="twKAsYr6d4WCP9Y2F7K1-4">
          <mxGeometry width="160" relative="1" as="geometry">
            <mxPoint x="299.9999999999999" y="617.6700000000001" as="sourcePoint" />
            <mxPoint x="460.64" y="612.32" as="targetPoint" />
          </mxGeometry>
        </mxCell>
        <mxCell id="twKAsYr6d4WCP9Y2F7K1-45" value="" style="edgeStyle=none;html=1;endArrow=none;verticalAlign=bottom;rounded=0;entryX=0.026;entryY=0.681;entryDx=0;entryDy=0;entryPerimeter=0;" edge="1" parent="1" target="twKAsYr6d4WCP9Y2F7K1-38">
          <mxGeometry width="160" relative="1" as="geometry">
            <mxPoint x="60" y="517.8399999999999" as="sourcePoint" />
            <mxPoint x="164.33999999999992" y="460.17" as="targetPoint" />
          </mxGeometry>
        </mxCell>
        <mxCell id="twKAsYr6d4WCP9Y2F7K1-46" value="" style="edgeStyle=none;html=1;endArrow=none;verticalAlign=bottom;rounded=0;entryX=0.012;entryY=0.417;entryDx=0;entryDy=0;entryPerimeter=0;" edge="1" parent="1" target="twKAsYr6d4WCP9Y2F7K1-39">
          <mxGeometry width="160" relative="1" as="geometry">
            <mxPoint x="60" y="517.8399999999999" as="sourcePoint" />
            <mxPoint x="166.29999999999995" y="538.8399999999999" as="targetPoint" />
          </mxGeometry>
        </mxCell>
        <mxCell id="twKAsYr6d4WCP9Y2F7K1-47" value="" style="edgeStyle=none;html=1;endArrow=none;verticalAlign=bottom;rounded=0;entryX=0.002;entryY=0.348;entryDx=0;entryDy=0;entryPerimeter=0;" edge="1" parent="1" target="twKAsYr6d4WCP9Y2F7K1-40">
          <mxGeometry width="160" relative="1" as="geometry">
            <mxPoint x="60" y="517.8399999999999" as="sourcePoint" />
            <mxPoint x="165.03999999999996" y="618.8399999999999" as="targetPoint" />
          </mxGeometry>
        </mxCell>
        <mxCell id="twKAsYr6d4WCP9Y2F7K1-48" value="Chef" style="shape=umlActor;verticalLabelPosition=bottom;verticalAlign=top;html=1;" vertex="1" parent="1">
          <mxGeometry x="970" y="85" width="30" height="60" as="geometry" />
        </mxCell>
        <mxCell id="twKAsYr6d4WCP9Y2F7K1-49" value="View order" style="ellipse;whiteSpace=wrap;html=1;" vertex="1" parent="1">
          <mxGeometry x="740" y="45" width="140" height="70" as="geometry" />
        </mxCell>
        <mxCell id="twKAsYr6d4WCP9Y2F7K1-50" value="Prepare order" style="ellipse;whiteSpace=wrap;html=1;" vertex="1" parent="1">
          <mxGeometry x="740" y="129.5" width="140" height="70" as="geometry" />
        </mxCell>
        <mxCell id="twKAsYr6d4WCP9Y2F7K1-51" value="Recieve order" style="ellipse;whiteSpace=wrap;html=1;" vertex="1" parent="1">
          <mxGeometry x="490" y="70" width="140" height="70" as="geometry" />
        </mxCell>
        <mxCell id="twKAsYr6d4WCP9Y2F7K1-52" value="" style="edgeStyle=none;html=1;endArrow=none;verticalAlign=bottom;rounded=0;entryX=0.983;entryY=0.633;entryDx=0;entryDy=0;entryPerimeter=0;exitX=0.567;exitY=0.383;exitDx=0;exitDy=0;exitPerimeter=0;" edge="1" parent="1" target="twKAsYr6d4WCP9Y2F7K1-49" source="twKAsYr6d4WCP9Y2F7K1-48">
          <mxGeometry width="160" relative="1" as="geometry">
            <mxPoint x="640" y="142.83999999999992" as="sourcePoint" />
            <mxPoint x="744.3399999999999" y="85.17000000000007" as="targetPoint" />
          </mxGeometry>
        </mxCell>
        <mxCell id="twKAsYr6d4WCP9Y2F7K1-53" value="" style="edgeStyle=none;html=1;endArrow=none;verticalAlign=bottom;rounded=0;exitX=0.589;exitY=0.361;exitDx=0;exitDy=0;exitPerimeter=0;entryX=0.983;entryY=0.331;entryDx=0;entryDy=0;entryPerimeter=0;" edge="1" parent="1" target="twKAsYr6d4WCP9Y2F7K1-50" source="twKAsYr6d4WCP9Y2F7K1-48">
          <mxGeometry width="160" relative="1" as="geometry">
            <mxPoint x="640" y="142.83999999999992" as="sourcePoint" />
            <mxPoint x="746.3" y="163.83999999999992" as="targetPoint" />
          </mxGeometry>
        </mxCell>
        <mxCell id="twKAsYr6d4WCP9Y2F7K1-55" value="&amp;lt;&amp;lt;include&amp;gt;&amp;gt;" style="edgeStyle=none;html=1;endArrow=open;verticalAlign=bottom;dashed=1;labelBackgroundColor=none;rounded=0;exitX=0.031;exitY=0.386;exitDx=0;exitDy=0;exitPerimeter=0;entryX=0.936;entryY=0.233;entryDx=0;entryDy=0;entryPerimeter=0;" edge="1" parent="1" source="twKAsYr6d4WCP9Y2F7K1-49" target="twKAsYr6d4WCP9Y2F7K1-51">
          <mxGeometry width="160" relative="1" as="geometry">
            <mxPoint x="1030" y="60" as="sourcePoint" />
            <mxPoint x="1190" y="60" as="targetPoint" />
          </mxGeometry>
        </mxCell>
        <mxCell id="twKAsYr6d4WCP9Y2F7K1-56" value="&amp;lt;&amp;lt;include&amp;gt;&amp;gt;" style="edgeStyle=none;html=1;endArrow=open;verticalAlign=bottom;dashed=1;labelBackgroundColor=none;rounded=0;exitX=0.071;exitY=0.364;exitDx=0;exitDy=0;exitPerimeter=0;entryX=0.95;entryY=0.738;entryDx=0;entryDy=0;entryPerimeter=0;" edge="1" parent="1" source="twKAsYr6d4WCP9Y2F7K1-50" target="twKAsYr6d4WCP9Y2F7K1-51">
          <mxGeometry width="160" relative="1" as="geometry">
            <mxPoint x="979.9999999999999" y="190" as="sourcePoint" />
            <mxPoint x="1117.3200000000002" y="203.96000000000004" as="targetPoint" />
          </mxGeometry>
        </mxCell>
        <mxCell id="twKAsYr6d4WCP9Y2F7K1-57" value="Delivery driver" style="shape=umlActor;verticalLabelPosition=bottom;verticalAlign=top;html=1;" vertex="1" parent="1">
          <mxGeometry x="970" y="295" width="30" height="60" as="geometry" />
        </mxCell>
        <mxCell id="twKAsYr6d4WCP9Y2F7K1-58" value="Pizza delivery" style="ellipse;whiteSpace=wrap;html=1;" vertex="1" parent="1">
          <mxGeometry x="740" y="295" width="140" height="70" as="geometry" />
        </mxCell>
        <mxCell id="twKAsYr6d4WCP9Y2F7K1-59" value="" style="edgeStyle=none;html=1;endArrow=none;verticalAlign=bottom;rounded=0;exitX=0.5;exitY=0.394;exitDx=0;exitDy=0;exitPerimeter=0;entryX=0.998;entryY=0.357;entryDx=0;entryDy=0;entryPerimeter=0;" edge="1" parent="1" target="twKAsYr6d4WCP9Y2F7K1-58" source="twKAsYr6d4WCP9Y2F7K1-57">
          <mxGeometry width="160" relative="1" as="geometry">
            <mxPoint x="650" y="308.3399999999999" as="sourcePoint" />
            <mxPoint x="880" y="315" as="targetPoint" />
          </mxGeometry>
        </mxCell>
        <mxCell id="twKAsYr6d4WCP9Y2F7K1-60" value="&amp;lt;&amp;lt;include&amp;gt;&amp;gt;" style="edgeStyle=none;html=1;endArrow=open;verticalAlign=bottom;dashed=1;labelBackgroundColor=none;rounded=0;exitX=0.036;exitY=0.31;exitDx=0;exitDy=0;exitPerimeter=0;entryX=0.745;entryY=1.005;entryDx=0;entryDy=0;entryPerimeter=0;" edge="1" parent="1" source="twKAsYr6d4WCP9Y2F7K1-58" target="twKAsYr6d4WCP9Y2F7K1-51">
          <mxGeometry width="160" relative="1" as="geometry">
            <mxPoint x="1060" y="330" as="sourcePoint" />
            <mxPoint x="1207.3200000000002" y="433.96000000000004" as="targetPoint" />
          </mxGeometry>
        </mxCell>
        <object placeholders="1" c4Name="Market" c4Type="SystemScopeBoundary" c4Application="Market" label="&lt;font style=&quot;font-size: 16px&quot;&gt;&lt;b&gt;&lt;div style=&quot;text-align: left&quot;&gt;%c4Name%&lt;/div&gt;&lt;/b&gt;&lt;/font&gt;&lt;div style=&quot;text-align: left&quot;&gt;[%c4Application%]&lt;/div&gt;" id="twKAsYr6d4WCP9Y2F7K1-61">
          <mxCell style="rounded=1;fontSize=11;whiteSpace=wrap;html=1;dashed=1;arcSize=20;fillColor=none;strokeColor=#666666;fontColor=#333333;labelBackgroundColor=none;align=left;verticalAlign=bottom;labelBorderColor=none;spacingTop=0;spacing=10;dashPattern=8 4;metaEdit=1;rotatable=0;perimeter=rectanglePerimeter;noLabel=0;labelPadding=0;allowArrows=0;connectable=0;expand=0;recursiveResize=0;editable=1;pointerEvents=0;absoluteArcSize=1;points=[[0.25,0,0],[0.5,0,0],[0.75,0,0],[1,0.25,0],[1,0.5,0],[1,0.75,0],[0.75,1,0],[0.5,1,0],[0.25,1,0],[0,0.75,0],[0,0.5,0],[0,0.25,0]];" vertex="1" parent="1">
            <mxGeometry x="140" width="790" height="690" as="geometry" />
          </mxCell>
        </object>
      </root>
    </mxGraphModel>
  </diagram>
</mxfile>
